<?xml version="1.0" encoding="UTF-8" standalone="no"?>
<svg xmlns="http://www.w3.org/2000/svg" xmlns:xlink="http://www.w3.org/1999/xlink" width="800" height="400" viewBox="0 0 800 400">
  <style>
    .box {
      fill: #f0f0f0;
      stroke: #333;
      stroke-width: 2;
      rx: 10;
      ry: 10;
    }
    .teacher-box {
      fill: #e6f7ff;
      stroke: #1890ff;
    }
    .student-box {
      fill: #f6ffed;
      stroke: #52c41a;
    }
    .eval-box {
      fill: #fff7e6;
      stroke: #fa8c16;
    }
    .refine-box {
      fill: #f9f0ff;
      stroke: #722ed1;
    }
    .arrow {
      fill: none;
      stroke: #333;
      stroke-width: 2;
      marker-end: url(#arrowhead);
    }
    .text {
      font-family: Arial, sans-serif;
      font-size: 16px;
      text-anchor: middle;
      dominant-baseline: middle;
    }
    .title {
      font-family: Arial, sans-serif;
      font-size: 24px;
      font-weight: bold;
      text-anchor: middle;
    }
    .subtitle {
      font-family: Arial, sans-serif;
      font-size: 14px;
      fill: #666;
      text-anchor: middle;
    }
  </style>
  
  <defs>
    <marker id="arrowhead" markerWidth="10" markerHeight="7" refX="9" refY="3.5" orient="auto">
      <polygon points="0 0, 10 3.5, 0 7" fill="#333" />
    </marker>
  </defs>
  
  <!-- Title -->
  <text x="400" y="30" class="title">TeacherForge Feedback Loop System</text>
  <text x="400" y="55" class="subtitle">Self-improving RAG-generated dataset creation</text>
  
  <!-- Teacher Model Box -->
  <rect x="100" y="100" width="160" height="80" class="box teacher-box" />
  <text x="180" y="130" class="text">Teacher Model</text>
  <text x="180" y="150" class="subtitle">(LLM with RAG)</text>
  
  <!-- Student Model Box -->
  <rect x="100" y="220" width="160" height="80" class="box student-box" />
  <text x="180" y="250" class="text">Student Model</text>
  <text x="180" y="270" class="subtitle">(Fine-tuned LLM)</text>
  
  <!-- Dataset Box -->
  <rect x="320" y="160" width="160" height="80" class="box" />
  <text x="400" y="185" class="text">Dataset</text>
  <text x="400" y="205" class="subtitle">(Q&amp;A Pairs)</text>
  
  <!-- Evaluator Box -->
  <rect x="540" y="100" width="160" height="80" class="box eval-box" />
  <text x="620" y="130" class="text">Evaluator</text>
  <text x="620" y="150" class="subtitle">(Quality Assessment)</text>
  
  <!-- Refiner Box -->
  <rect x="540" y="220" width="160" height="80" class="box refine-box" />
  <text x="620" y="250" class="text">Refiner</text>
  <text x="620" y="270" class="subtitle">(Response Improvement)</text>
  
  <!-- Arrows -->
  <!-- Teacher to Dataset -->
  <path d="M 260,140 L 320,180" class="arrow" />
  <text x="290" y="150" class="subtitle">Generates</text>
  
  <!-- Student to Dataset -->
  <path d="M 260,260 L 320,220" class="arrow" />
  <text x="290" y="250" class="subtitle">Learns from</text>
  
  <!-- Dataset to Evaluator -->
  <path d="M 480,180 L 540,140" class="arrow" />
  <text x="510" y="150" class="subtitle">Evaluates</text>
  
  <!-- Evaluator to Refiner -->
  <path d="M 620,180 L 620,220" class="arrow" />
  <text x="640" y="200" class="subtitle">Feedback</text>
  
  <!-- Refiner to Dataset -->
  <path d="M 540,260 L 480,220" class="arrow" />
  <text x="510" y="250" class="subtitle">Improves</text>
  
  <!-- Dataset to Student -->
  <path d="M 320,200 L 260,240" class="arrow" transform="translate(0, 20)" />
  <text x="290" y="230" class="subtitle">Trains</text>
  
  <!-- Feedback Loop Label -->
  <ellipse cx="400" cy="330" rx="220" ry="40" fill="none" stroke="#333" stroke-width="2" stroke-dasharray="5,5" />
  <text x="400" y="330" class="text">Continuous Improvement Cycle</text>
</svg>
